<svg width="28" height="28" viewBox="0 0 28 28" fill="none" xmlns="http://www.w3.org/2000/svg">
<g clip-path="url(#clip0_594_602)">
<path d="M13.6943 24.5598C13.6943 23.0853 12.4991 21.8901 11.0249 21.8901C9.55043 21.8901 8.35522 23.0853 8.35522 24.5595C8.35522 26.034 9.55043 27.2292 11.0249 27.2292C12.4983 27.2276 13.6927 26.0334 13.6943 24.5598ZM9.30209 24.5598C9.30209 23.6082 10.0733 22.837 11.0249 22.837C11.9762 22.837 12.7474 23.6082 12.7474 24.5595C12.7474 25.5111 11.9762 26.2823 11.0249 26.2823C10.0738 26.2813 9.30314 25.5106 9.30209 24.5598Z" fill="white"/>
<path d="M20.9099 27.2292C22.3843 27.2294 23.5795 26.0342 23.5795 24.5598C23.5798 23.0853 22.3846 21.8901 20.9101 21.8901C19.4357 21.8901 18.2405 23.0853 18.2405 24.5598C18.2423 26.0332 19.4362 27.2273 20.9099 27.2292ZM20.9099 22.837C21.8612 22.837 22.6327 23.6082 22.6327 24.5595C22.6329 25.5109 21.8615 26.2823 20.9101 26.2823C19.9588 26.2823 19.1873 25.5111 19.1873 24.5598C19.1884 23.609 19.959 22.8383 20.9099 22.837Z" fill="white"/>
<path d="M0.473427 1.69077H3.36128C4.31157 1.68708 5.12184 2.37899 5.26662 3.31845L7.55265 17.7588C7.76849 19.159 8.97636 20.1906 10.3932 20.1851H24.5236C24.7849 20.1851 24.9971 19.973 24.9971 19.7117C24.9971 19.4501 24.7849 19.2382 24.5236 19.2382H10.3932C9.44292 19.2419 8.63265 18.5498 8.48788 17.6106L8.09926 15.1555H22.5713C23.7966 15.1549 24.8872 14.3787 25.2887 13.2213L27.9737 5.47212C28.0242 5.32734 28.0012 5.16724 27.9124 5.04228C27.8234 4.91759 27.6797 4.84335 27.5264 4.84335H6.46657L6.20185 3.17024C5.986 1.77003 4.77813 0.738371 3.36128 0.743919H0.473427C0.21188 0.743919 0 0.956063 0 1.21735C0 1.47889 0.21188 1.69077 0.473427 1.69077ZM26.8612 5.79047L24.3942 12.9112C24.1247 13.6876 23.3932 14.2083 22.5713 14.2086H7.9492L6.61636 5.7902L26.8612 5.79047Z" fill="white"/>
</g>
<defs>
<clipPath id="clip0_594_602">
<rect width="28" height="28" fill="white"/>
</clipPath>
</defs>
</svg>
