<svg width="23" height="23" viewBox="0 0 23 23" fill="none" xmlns="http://www.w3.org/2000/svg">
<path d="M23 3.83325H0V19.1667H23V3.83325Z" fill="#F0F0F0"/>
<path d="M12.9375 3.83325H10.0625V10.0624H0V12.9374H10.0625V19.1665H12.9375V12.9374H23V10.0624H12.9375V3.83325Z" fill="#D80027"/>
<path d="M17.6896 14.1665L23 17.1168V14.1665H17.6896Z" fill="#0052B4"/>
<path d="M14 14.1665L23 19.1665V17.7526L16.545 14.1665H14Z" fill="#0052B4"/>
<path d="M20.6027 19.1665L14 15.498V19.1665H20.6027Z" fill="#0052B4"/>
<path d="M14 14.1665L23 19.1665V17.7526L16.545 14.1665H14Z" fill="#F0F0F0"/>
<path d="M14 14.1665L23 19.1665V17.7526L16.545 14.1665H14Z" fill="#D80027"/>
<path d="M4.05829 14.1665L0 16.4211V14.1665H4.05829Z" fill="#0052B4"/>
<path d="M8.99999 14.8022V19.1665H1.14508L8.99999 14.8022Z" fill="#0052B4"/>
<path d="M6.45496 14.1665L0 17.7526V19.1665L9.00001 14.1665H6.45496Z" fill="#D80027"/>
<path d="M5.31044 8.83335L0 5.88306V8.83335H5.31044Z" fill="#0052B4"/>
<path d="M9.00001 8.83324L0 3.83325V5.24712L6.45496 8.83324H9.00001Z" fill="#0052B4"/>
<path d="M2.39728 3.83325L8.99999 7.50175V3.83325H2.39728Z" fill="#0052B4"/>
<path d="M9.00001 8.83324L0 3.83325V5.24712L6.45496 8.83324H9.00001Z" fill="#F0F0F0"/>
<path d="M9.00001 8.83324L0 3.83325V5.24712L6.45496 8.83324H9.00001Z" fill="#D80027"/>
<path d="M18.9417 8.83324L23 6.57861V8.83324H18.9417Z" fill="#0052B4"/>
<path d="M14 8.19746V3.83325H21.8549L14 8.19746Z" fill="#0052B4"/>
<path d="M16.545 8.83324L23 5.24712V3.83325L14 8.83324H16.545Z" fill="#D80027"/>
</svg>
