<svg width="344" height="202" viewBox="0 0 344 202" fill="none" xmlns="http://www.w3.org/2000/svg">
<path fill-rule="evenodd" clip-rule="evenodd" d="M254.08 29.4378L256.62 30.8359L259.056 32.3117V38.0854L256.62 39.5611L256.179 39.82L261.96 51.7039L277.434 44.2733L267.636 85.2584C274.894 85.7762 275.257 98.7216 267.636 99.7572C266.677 104.314 266.936 111.822 267.636 120.03C269.554 130.075 272.613 137.506 276.916 142.581C283.137 142.84 283.837 155.759 276.916 157.079C285.315 159.254 287.673 166.348 288.295 174.815H290.914C297.549 175.151 297.031 185.223 290.914 184.964L254.183 185.042L218.593 184.964C217.816 181.21 217.012 177.896 215.612 175.255C216.131 174.996 216.753 174.892 217.453 174.815H220.071C220.693 166.348 223.052 159.254 231.45 157.079C224.529 155.759 225.229 142.84 231.45 142.581C235.727 137.506 238.786 130.075 240.626 120.03C241.404 111.822 241.689 104.314 240.626 99.7572C233.006 98.7216 233.446 85.7762 240.626 85.2584L230.828 45.0759L245.526 51.6262L251.902 39.7424L251.565 39.5611L249.129 38.0854V32.3117L251.565 30.8359L254.105 29.4378H254.08ZM34.0605 81.3489C31.3388 78.5527 27.9431 76.1966 24.1846 74.1771C23.8217 78.3714 24.4438 82.2033 25.4029 85.9833C20.2445 91.1356 14.9825 96.3914 9.74646 101.621C8.96883 104.858 8.42448 106.774 8.42448 108.431C11.7424 110.787 15.501 111.305 19.8816 108.948C26.4397 109.13 31.0796 106.411 32.92 99.4207C36.1601 112.444 28.0987 121.713 16.8229 129.92C9.38357 136.652 9.20212 143.28 13.0644 150.011C8.24303 154.128 7.02474 159.021 5.62499 163.63H3.29209C-1.16636 164.407 -0.984907 171.397 3.29209 172.2H47.5395C49.1985 170.879 51.2203 169.585 54.1754 168.627C55.3937 164.251 57.0526 159.979 60.6557 156.225L56.8193 150.193C55.938 138.568 58.9967 126.684 64.6994 114.541C69.3393 90.6955 51.4796 74.7726 34.7863 78.1902L34.0864 81.3489H34.0605ZM127.299 202C119.16 200.861 120.922 189.78 127.299 189.676H130.798C132.017 180.666 134.738 172.562 142.955 167.824C136.216 167.047 136.216 154.283 142.955 153.843C152.754 142.477 156.953 123.784 157.73 100.456H155.009C146.273 98.1779 147.673 83.4978 155.009 82.2033H157.186L152.209 40.8816H162.448C162.526 36.6873 165.17 33.1143 168.825 31.6127V20.1689L157.108 24.182V10.0456L168.825 12.4794L166.803 0H178.442L176.523 12.4794L188.343 10.3822V22.8875L176.523 20.1689V31.7939C180.023 33.3732 182.459 36.8685 182.563 40.8816H192.698L187.721 82.2033H190.002C197.338 83.5237 198.738 98.2038 190.002 100.456H187.281C188.058 123.784 192.257 142.477 202.056 153.843C208.795 154.283 208.795 167.047 202.056 167.824C210.273 172.536 212.994 180.666 214.213 189.676H217.712C224.089 189.754 225.851 200.861 217.712 202L197.157 201.922C200.034 200.602 199.775 194.155 193.839 195.113C193.579 190.22 191.921 186.025 187.721 183.152C191.661 182.194 190.961 173.624 187.721 173.184C183.444 170.206 180.8 164.355 180.204 154.931C183.963 154.594 184.481 146.904 180.204 146.62H178.364C180.463 144.781 181.682 142.063 181.682 139.189C181.682 133.597 177.223 129.143 171.702 129.143C166.181 129.143 161.645 133.597 161.645 139.189C161.645 144.781 162.967 144.781 164.962 146.62H163.226C158.845 146.878 159.467 154.568 163.226 154.931C162.526 164.355 159.908 170.232 155.605 173.184C152.365 173.624 151.769 182.194 155.605 183.152C151.406 186.025 149.825 190.22 149.488 195.113C143.552 194.155 143.266 200.705 146.17 201.922L127.273 202H127.299ZM56.7934 184.964C50.676 185.223 50.0539 175.177 56.7934 174.815H59.3337C60.0336 166.348 62.3924 159.254 70.7908 157.079C63.8699 155.759 64.492 142.84 70.7908 142.581C74.9901 137.506 78.1265 130.075 79.9669 120.03C80.6668 111.822 81.0038 104.314 79.9669 99.7572C72.3461 98.7216 72.709 85.7762 79.9669 85.2584L73.8495 64.6493L91.0871 45.5937L88.9098 44.2733V38.4996L91.3463 37.0238L93.8866 35.6257L96.4269 37.0238L98.8635 38.4996V44.2733L96.4269 45.749L96.1677 45.8267L113.146 64.6234L107.029 85.2325C114.287 85.7503 114.649 98.6957 107.029 99.7314C105.966 104.288 106.329 111.796 107.029 120.004C108.869 130.049 112.006 137.48 116.205 142.555C122.504 142.814 123.126 155.733 116.205 157.054C124.681 159.228 126.962 166.322 127.662 174.789H129.684C128.206 177.585 127.325 181.003 126.547 184.938L93.5756 185.016L56.8452 184.938L56.7934 184.964ZM291.406 169.947C290.784 166.97 289.825 164.018 287.544 161.041C288.607 157.882 289.825 154.827 292.365 152.911V142.244H296.046V109.13H291.587C289.566 106.592 287.388 103.977 285.029 100.922V85.9833H294.75V95.9513H301.826V85.9833H309.343V95.9513H317.483V85.9833H325V95.9513H332.076V85.9833H341.797V100.922C339.36 103.977 337.261 106.592 335.239 109.13H330.78V142.244H334.461V152.911C337.442 154.568 339.542 158.581 340.941 164.174C344.7 164.432 345.322 172.044 340.941 172.303H297.29C295.631 170.646 293.791 169.585 291.432 169.947H291.406ZM340.293 165.934L323.056 167.151L340.293 168.471C341.512 168.471 341.615 166.012 340.293 165.934ZM327.255 108.974H325.337V142.166H327.255V108.974ZM289.98 177.481L269.865 178.543L289.98 179.682C291.562 179.501 291.199 177.507 289.98 177.507V177.481ZM277.383 146.024L261.104 146.982L277.383 148.121C278.705 147.94 278.419 145.946 277.383 146.024ZM268.025 89.4009L253.406 90.7214L268.025 92.1971C269.243 92.0159 268.984 89.3232 268.025 89.4009ZM245.551 59.9631L238.475 64.9341L243.452 78.475L242.234 66.5135L245.551 59.9631ZM180.386 46.7588L188.447 46.5775L186.166 66.4099L186.244 49.8139L180.386 46.7588ZM154.672 86.3458L169.291 87.7439L154.672 89.2197C153.531 88.9608 153.79 86.3458 154.672 86.3458ZM143.033 157.209L158.612 158.788L143.033 159.824C141.452 159.643 141.815 157.105 143.033 157.209ZM129.399 192.058L148.373 192.938L129.399 194.958C127.221 194.699 127.636 191.98 129.399 192.084V192.058ZM57.6747 177.456L77.7118 178.517L57.6747 179.656C56.0158 179.475 56.3527 177.481 57.6747 177.481V177.456ZM70.1947 145.998L86.5509 146.956L70.1947 148.095C68.8727 147.914 69.1319 145.921 70.1947 145.998ZM79.5522 89.375L94.1717 90.6955L79.5522 92.1712C78.4117 91.99 78.6709 89.2974 79.5522 89.375ZM102.026 59.9372L109.206 64.9082L104.229 78.4491L105.447 66.4876L102.026 59.9372ZM22.7071 94.7085L25.9472 92.1712L25.1696 95.4076L22.733 94.7085H22.7071ZM18.3264 148.173C15.3454 142.14 16.5897 136.367 24.1068 131.059C19.4669 136.911 19.0262 142.684 22.8885 148.354L18.3264 148.173ZM6.61 166.167L21.3851 167.203L6.61 168.342C5.3917 168.161 5.65092 166.167 6.61 166.167Z" fill="white"/>
</svg>
